<?xml version="1.0" encoding="iso-8859-1"?>
<!-- Uploaded to: SVG Repo, www.svgrepo.com, Generator: SVG Repo Mixer Tools -->
<svg fill="#000000" version="1.1" id="Layer_1" xmlns="http://www.w3.org/2000/svg" xmlns:xlink="http://www.w3.org/1999/xlink" 
	 viewBox="0 0 512 512" xml:space="preserve">
<g>
	<g>
		<rect x="44.503" y="392.646" width="160.21" height="17.801"/>
	</g>
</g>
<g>
	<g>
		<rect y="428.248" width="249.216" height="17.801"/>
	</g>
</g>
<g>
	<g>
		
			<rect x="112.362" y="185.045" transform="matrix(0.6097 -0.7926 0.7926 0.6097 -164.2462 200.2923)" width="17.801" height="163.766"/>
	</g>
</g>
<g>
	<g>
		<path d="M257.126,207.501l37.488-49.75c8.857-11.76,6.51-28.531-5.241-37.393L224.27,71.306
			c-5.667-4.276-12.682-6.076-19.739-5.094c-7.084,0.987-13.351,4.668-17.645,10.361l-84.26,111.818
			c-4.285,5.685-6.632,12.703-5.65,19.766c0.991,7.071,5.38,13.329,9.831,17.619c0,0,0,0,0,0.004l65.633,49.057
			c4.65,3.507,10.478,5.354,16.232,5.354c1.252,0,2.645-0.087,3.905-0.265c7.084-0.986,13.418-4.667,17.712-10.356l36.089-47.849
			L501.309,412.9L512,398.658L257.126,207.501z M196.134,258.852c-1.425,1.891-3.512,3.116-5.884,3.447
			c-2.347,0.308-4.694-0.265-6.571-1.678l-65.103-49.062c-1.886-1.421-3.103-3.503-3.433-5.858c-0.33-2.36,0.278-4.702,1.704-6.597
			l84.26-111.818c1.425-1.891,3.512-3.112,5.884-3.442c2.399-0.334,4.702,0.265,6.571,1.678l65.103,49.053
			c3.911,2.951,4.685,8.54,1.73,12.46L196.134,258.852z"/>
	</g>
</g>
</svg>