<?xml version="1.0" encoding="iso-8859-1"?>
<!-- Uploaded to: SVG Repo, www.svgrepo.com, Generator: SVG Repo Mixer Tools -->
<svg fill="#000000" height="800px" width="800px" version="1.1" id="Layer_1" xmlns="http://www.w3.org/2000/svg" xmlns:xlink="http://www.w3.org/1999/xlink" 
	 viewBox="0 0 511.999 511.999" xml:space="preserve">
<g>
	<g>
		<path d="M256.298,101.846c-92.85,0-206.983,143.686-206.983,260.579c0,44.352,15.783,79.881,46.928,105.612
			c35.323,29.174,89.169,43.962,160.054,43.962c70.625,0,124.319-14.906,159.567-44.319c31.069-25.916,46.82-61.673,46.82-106.262
			C462.685,244.98,348.887,101.846,256.298,101.846z M264.276,302.614c23.697,12.525,53.196,28.124,53.196,59.042
			c0,27.843-18.793,51.339-44.341,58.603v7.908c0,9.18-7.448,16.628-16.628,16.628c-9.18,0-16.628-7.448-16.628-16.628v-7.908
			c-25.548-7.264-44.341-30.76-44.341-58.603c0-9.18,7.448-16.628,16.628-16.628c9.18,0,16.628,7.448,16.628,16.628
			c0,15.285,12.428,27.713,27.713,27.713s27.713-12.428,27.713-27.713c0-10.89-18.036-20.417-35.486-29.64
			c-23.697-12.525-53.196-28.124-53.196-59.042c0-27.843,18.793-51.339,44.341-58.603v-7.908c0-9.18,7.448-16.628,16.628-16.628
			c9.18,0,16.628,7.448,16.628,16.628v7.908c25.548,7.264,44.341,30.76,44.341,58.603c0,9.18-7.448,16.628-16.628,16.628
			c-9.18,0-16.628-7.448-16.628-16.628c0-15.285-12.428-27.713-27.713-27.713s-27.713,12.428-27.713,27.713
			C228.791,283.864,246.825,293.391,264.276,302.614z"/>
	</g>
</g>
<g>
	<g>
		<path d="M347.037,20.547c-7.686-3.941-17.126-1.354-21.705,5.976c-6.95,11.14-16.639,13.932-23.545,14.311
			c-12.016,0.855-24.087-5.25-32.454-15.816C256.752,9.115,236.844,0,214.728,0c-22.116,0-42.024,9.115-54.604,25.017
			c-3.746,4.72-4.634,11.085-2.338,16.66c1.859,4.508,10.991,25.543,26.151,46.511c23.911-12.465,48.487-19.6,72.36-19.6
			c23.868,0,48.444,7.139,72.347,19.615c15.169-20.974,24.306-42.019,26.166-46.528C358.1,33.678,354.722,24.498,347.037,20.547z"/>
	</g>
</g>
</svg>